<svg width="17" height="16" viewBox="0 0 17 16" fill="none" xmlns="http://www.w3.org/2000/svg">
<path d="M16.6525 6.04549C16.5425 5.70742 16.2427 5.46806 15.8893 5.43609L11.0696 4.99853L9.16487 0.539087C9.02424 0.211457 8.70425 0 8.34808 0C7.99192 0 7.67181 0.211457 7.53207 0.539087L5.6273 4.99853L0.806857 5.43609C0.453495 5.4687 0.154271 5.70805 0.0437026 6.04549C-0.0662293 6.38357 0.0352953 6.75438 0.302546 6.98877L3.94584 10.1834L2.87162 14.9147C2.79302 15.2626 2.92805 15.6223 3.2167 15.831C3.37185 15.9437 3.55414 16 3.73706 16C3.89425 16 4.05157 15.9582 4.19207 15.8741L8.34808 13.3891L12.5033 15.8741C12.8082 16.0563 13.1915 16.0396 13.4795 15.831C13.7681 15.6223 13.9031 15.2626 13.8246 14.9147L12.7503 10.1834L16.3936 6.98877C16.6607 6.75438 16.7624 6.38433 16.6525 6.04549V6.04549Z" fill="#FFB524"/>
</svg>
