<svg width="181" height="16" viewBox="0 0 181 16" fill="none" xmlns="http://www.w3.org/2000/svg">
<path d="M8.24 6.66H16.78V14.94H13.26L12.84 11.4C12.44 12.6667 11.7267 13.6067 10.7 14.22C9.67333 14.8333 8.42 15.14 6.94 15.14C5.59333 15.14 4.39333 14.84 3.34 14.24C2.3 13.64 1.48 12.78 0.88 11.66C0.293333 10.54 0 9.23333 0 7.74C0 5.35333 0.713333 3.46667 2.14 2.08C3.56667 0.693334 5.78667 0 8.8 0C10.52 0 12.0333 0.28 13.34 0.840001C14.66 1.4 15.78 2.26667 16.7 3.44C16.1 3.74667 14.9267 4.36 13.18 5.28L12.68 5.56C12.16 5.04 11.5533 4.65333 10.86 4.4C10.1667 4.13333 9.43333 4 8.66 4C7.38 4 6.42667 4.34 5.8 5.02C5.17333 5.68667 4.86 6.51333 4.86 7.5C4.86 8.56667 5.19333 9.42667 5.86 10.08C6.54 10.7333 7.57333 11.06 8.96 11.06C9.56 11.06 10.14 10.9733 10.7 10.8C11.2733 10.6267 11.7533 10.3267 12.14 9.9H8.24V6.66Z" fill="#9DA2A6"/>
<path d="M34.4389 5.26C34.4389 6.42 34.1522 7.4 33.5789 8.2C33.0189 9 32.0522 9.58 30.6789 9.94C30.8389 10.1533 30.9522 10.32 31.0189 10.44L34.2589 14.94H28.8189C28.2322 13.8467 27.3056 12.3 26.0389 10.3H23.0989V14.94H18.3789C18.4856 12.3533 18.5389 9.93333 18.5389 7.68C18.5389 5.42667 18.4856 3.00667 18.3789 0.420001H23.0989V0.440001H27.1989C29.8922 0.440001 31.7722 0.873334 32.8389 1.74C33.9056 2.60667 34.4389 3.78 34.4389 5.26ZM23.0989 4.28V6.56H25.7989C26.9322 6.56 27.7856 6.52667 28.3589 6.46C28.9456 6.38 29.3522 6.26 29.5789 6.1C29.8056 5.94 29.9189 5.70667 29.9189 5.4C29.9189 5.10667 29.8122 4.88 29.5989 4.72C29.3856 4.56 28.9856 4.44667 28.3989 4.38C27.8122 4.31333 26.9456 4.28 25.7989 4.28H23.0989Z" fill="#9DA2A6"/>
<path d="M47.4637 14.94C47.0504 13.7667 46.8038 13.0733 46.7238 12.86L46.4238 12.08H40.1038C39.6238 13.36 39.2771 14.3133 39.0638 14.94H34.0438L39.6437 0.420001H47.0037L52.6438 14.94H47.4637ZM45.2438 8.96C44.3371 6.56 43.6771 4.76667 43.2638 3.58C42.8504 4.76667 42.1904 6.56 41.2838 8.96H45.2438Z" fill="#9DA2A6"/>
<path d="M70.1003 0.440001C70.007 2.69333 69.9603 5.10667 69.9603 7.68C69.9603 10.2667 70.007 12.6867 70.1003 14.94H62.9403L58.1003 4.02L58.4603 14.94H53.3203C53.427 12.3533 53.4803 9.93333 53.4803 7.68C53.4803 5.44 53.427 3.02667 53.3203 0.440001H60.6803L65.5403 11.66L65.2003 0.440001H70.1003Z" fill="#9DA2A6"/>
<path d="M78.0992 0.200001C80.6059 0.200001 82.5859 0.506667 84.0392 1.12C85.4925 1.72 86.5059 2.56 87.0792 3.64C87.6659 4.70667 87.9592 6.02 87.9592 7.58C87.9592 9.06 87.6259 10.3533 86.9592 11.46C86.2925 12.5667 85.2925 13.42 83.9592 14.02C82.6259 14.6333 80.9859 14.94 79.0392 14.94C77.8525 14.94 76.6459 14.94 75.4192 14.94C74.1925 14.94 72.9526 14.9333 71.6992 14.92C71.8059 12.2933 71.8592 9.84667 71.8592 7.58C71.8592 5.28667 71.8059 2.89333 71.6992 0.400001C73.2859 0.266667 75.4192 0.200001 78.0992 0.200001ZM79.5992 10.96C80.8392 10.96 81.6659 10.66 82.0792 10.06C82.4925 9.46 82.6992 8.63333 82.6992 7.58C82.6992 6.56667 82.4792 5.74667 82.0392 5.12C81.6125 4.49333 80.7992 4.18 79.5992 4.18C78.3059 4.18 77.3392 4.22 76.6992 4.3V10.96H79.5992Z" fill="#9DA2A6"/>
<path d="M110.315 0.420001C110.221 2.67333 110.175 5.09333 110.175 7.68C110.175 10.2667 110.221 12.6867 110.315 14.94H105.615V9.5H98.2547V14.94H93.5547C93.6614 12.3533 93.7147 9.93333 93.7147 7.68C93.7147 5.42667 93.6614 3.00667 93.5547 0.420001H98.2547V5.86H105.615V0.420001H110.315Z" fill="#9DA2A6"/>
<path d="M120.814 15.14C117.761 15.14 115.514 14.48 114.074 13.16C112.634 11.8267 111.914 9.96 111.914 7.56C111.914 5.18667 112.627 3.33333 114.054 2C115.494 0.666667 117.747 0 120.814 0C123.894 0 126.147 0.666667 127.574 2C129.014 3.33333 129.734 5.18667 129.734 7.56C129.734 9.97333 129.021 11.84 127.594 13.16C126.167 14.48 123.907 15.14 120.814 15.14ZM120.814 11.06C122.294 11.06 123.361 10.78 124.014 10.22C124.667 9.64667 124.994 8.76 124.994 7.56C124.994 6.38667 124.667 5.51333 124.014 4.94C123.361 4.36667 122.294 4.08 120.814 4.08C119.347 4.08 118.287 4.36667 117.634 4.94C116.981 5.51333 116.654 6.38667 116.654 7.56C116.654 8.74667 116.981 9.62667 117.634 10.2C118.287 10.7733 119.347 11.06 120.814 11.06Z" fill="#9DA2A6"/>
<path d="M147.512 4.62C145.419 4.55333 143.385 4.51333 141.412 4.5V14.94H136.412V4.5C134.425 4.51333 132.399 4.55333 130.332 4.62V0.420001H147.512V4.62Z" fill="#9DA2A6"/>
<path d="M153.841 11.28C158.908 11.2533 162.581 11.18 164.861 11.06C164.768 11.6067 164.708 12.1733 164.681 12.76C164.668 13.3333 164.661 14.06 164.661 14.94H149.121C149.228 12.3533 149.281 9.93333 149.281 7.68C149.281 5.42667 149.228 3.00667 149.121 0.420001H164.661V4.04H153.841V5.96C154.481 5.97333 155.428 5.98 156.681 5.98C158.801 5.98 160.994 5.94 163.261 5.86V9.3C160.994 9.22 158.801 9.18 156.681 9.18C155.428 9.18 154.481 9.18667 153.841 9.2V11.28Z" fill="#9DA2A6"/>
<path d="M171.345 10.9C175.211 10.8733 178.412 10.8067 180.945 10.7C180.772 11.38 180.665 12.0333 180.625 12.66C180.585 13.2867 180.565 14.0467 180.565 14.94H166.465C166.572 12.3533 166.625 9.93333 166.625 7.68C166.625 5.42667 166.572 3.00667 166.465 0.420001H171.345V10.9Z" fill="#9DA2A6"/>
</svg>
